<mxfile host="app.diagrams.net" agent="Mozilla/5.0 (Windows NT 10.0; Win64; x64) AppleWebKit/537.36 (KHTML, like Gecko) Chrome/134.0.0.0 Safari/537.36" version="26.1.0">
  <diagram name="Page-1" id="EKJ2kd4RgJoKmwQdWKdD">
    <mxGraphModel dx="1584" dy="1638" grid="1" gridSize="10" guides="1" tooltips="1" connect="1" arrows="1" fold="1" page="1" pageScale="1" pageWidth="850" pageHeight="1100" math="0" shadow="0">
      <root>
        <mxCell id="0" />
        <mxCell id="1" parent="0" />
        <mxCell id="fo_Kurq_kEMjWYs5cq_H-1" value="" style="rounded=1;whiteSpace=wrap;html=1;" vertex="1" parent="1">
          <mxGeometry x="510" y="410" width="810" height="530" as="geometry" />
        </mxCell>
        <mxCell id="fo_Kurq_kEMjWYs5cq_H-17" value="" style="rounded=1;whiteSpace=wrap;html=1;dashed=1;dashPattern=8 8;" vertex="1" parent="1">
          <mxGeometry x="550.01" y="490" width="400" height="360" as="geometry" />
        </mxCell>
        <mxCell id="fo_Kurq_kEMjWYs5cq_H-15" style="rounded=0;orthogonalLoop=1;jettySize=auto;html=1;" edge="1" parent="1">
          <mxGeometry relative="1" as="geometry">
            <mxPoint x="619.64" y="710.0001977209646" as="sourcePoint" />
            <mxPoint x="620" y="710.0001997758015" as="targetPoint" />
            <Array as="points" />
          </mxGeometry>
        </mxCell>
        <mxCell id="fo_Kurq_kEMjWYs5cq_H-5" value="" style="aspect=fixed;sketch=0;html=1;dashed=0;whitespace=wrap;verticalLabelPosition=bottom;verticalAlign=top;fillColor=#2875E2;strokeColor=#ffffff;points=[[0.005,0.63,0],[0.1,0.2,0],[0.9,0.2,0],[0.5,0,0],[0.995,0.63,0],[0.72,0.99,0],[0.5,1,0],[0.28,0.99,0]];shape=mxgraph.kubernetes.icon2;kubernetesLabel=1;prIcon=svc" vertex="1" parent="1">
          <mxGeometry x="703.13" y="515" width="93.75" height="90" as="geometry" />
        </mxCell>
        <mxCell id="fo_Kurq_kEMjWYs5cq_H-25" style="rounded=0;orthogonalLoop=1;jettySize=auto;html=1;startArrow=classic;startFill=0;strokeWidth=3;endArrow=none;" edge="1" parent="1" target="fo_Kurq_kEMjWYs5cq_H-12">
          <mxGeometry relative="1" as="geometry">
            <mxPoint x="1170" y="550" as="sourcePoint" />
            <mxPoint x="1009" y="250" as="targetPoint" />
          </mxGeometry>
        </mxCell>
        <mxCell id="fo_Kurq_kEMjWYs5cq_H-40" value="&lt;font style=&quot;font-size: 20px;&quot;&gt;Subscribe&lt;/font&gt;" style="edgeLabel;html=1;align=center;verticalAlign=middle;resizable=0;points=[];" vertex="1" connectable="0" parent="fo_Kurq_kEMjWYs5cq_H-25">
          <mxGeometry x="0.3883" y="-6" relative="1" as="geometry">
            <mxPoint as="offset" />
          </mxGeometry>
        </mxCell>
        <mxCell id="fo_Kurq_kEMjWYs5cq_H-10" value="&lt;font style=&quot;font-size: 24px;&quot;&gt;Controller&lt;/font&gt;" style="rounded=1;whiteSpace=wrap;html=1;" vertex="1" parent="1">
          <mxGeometry x="1070" y="550" width="200" height="100" as="geometry" />
        </mxCell>
        <mxCell id="fo_Kurq_kEMjWYs5cq_H-11" value="&lt;font style=&quot;font-size: 25px;&quot;&gt;CLISH CLI&lt;/font&gt;" style="rounded=1;whiteSpace=wrap;html=1;" vertex="1" parent="1">
          <mxGeometry x="1070" y="735" width="200" height="100" as="geometry" />
        </mxCell>
        <mxCell id="fo_Kurq_kEMjWYs5cq_H-12" value="" style="sketch=0;points=[[0,0,0],[0.25,0,0],[0.5,0,0],[0.75,0,0],[1,0,0],[0,1,0],[0.25,1,0],[0.5,1,0],[0.75,1,0],[1,1,0],[0,0.25,0],[0,0.5,0],[0,0.75,0],[1,0.25,0],[1,0.5,0],[1,0.75,0]];outlineConnect=0;fontColor=#232F3E;fillColor=#7AA116;strokeColor=#ffffff;dashed=0;verticalLabelPosition=bottom;verticalAlign=top;align=center;html=1;fontSize=12;fontStyle=0;aspect=fixed;shape=mxgraph.aws4.resourceIcon;resIcon=mxgraph.aws4.internet_of_things;" vertex="1" parent="1">
          <mxGeometry x="1115.5" y="150.5" width="109" height="109" as="geometry" />
        </mxCell>
        <mxCell id="fo_Kurq_kEMjWYs5cq_H-18" value="" style="aspect=fixed;sketch=0;html=1;dashed=0;whitespace=wrap;verticalLabelPosition=bottom;verticalAlign=top;fillColor=#2875E2;strokeColor=#ffffff;points=[[0.005,0.63,0],[0.1,0.2,0],[0.9,0.2,0],[0.5,0,0],[0.995,0.63,0],[0.72,0.99,0],[0.5,1,0],[0.28,0.99,0]];shape=mxgraph.kubernetes.icon2;prIcon=ing" vertex="1" parent="1">
          <mxGeometry x="520" y="630" width="93.76" height="90" as="geometry" />
        </mxCell>
        <mxCell id="fo_Kurq_kEMjWYs5cq_H-21" value="" style="aspect=fixed;sketch=0;html=1;dashed=0;whitespace=wrap;verticalLabelPosition=bottom;verticalAlign=top;fillColor=#2875E2;strokeColor=#ffffff;points=[[0.005,0.63,0],[0.1,0.2,0],[0.9,0.2,0],[0.5,0,0],[0.995,0.63,0],[0.72,0.99,0],[0.5,1,0],[0.28,0.99,0]];shape=mxgraph.kubernetes.icon2;kubernetesLabel=1;prIcon=svc" vertex="1" parent="1">
          <mxGeometry x="703.13" y="740" width="93.75" height="90" as="geometry" />
        </mxCell>
        <mxCell id="fo_Kurq_kEMjWYs5cq_H-24" value="&lt;font style=&quot;font-size: 32px;&quot;&gt;Service Gateway&lt;/font&gt;" style="rounded=1;whiteSpace=wrap;html=1;strokeWidth=0;strokeColor=none;" vertex="1" parent="1">
          <mxGeometry x="550.01" y="420" width="290" height="60" as="geometry" />
        </mxCell>
        <mxCell id="fo_Kurq_kEMjWYs5cq_H-26" style="rounded=0;orthogonalLoop=1;jettySize=auto;html=1;entryX=0.005;entryY=0.63;entryDx=0;entryDy=0;entryPerimeter=0;exitX=0.995;exitY=0.63;exitDx=0;exitDy=0;exitPerimeter=0;edgeStyle=orthogonalEdgeStyle;curved=1;strokeWidth=3;" edge="1" parent="1" source="fo_Kurq_kEMjWYs5cq_H-18" target="fo_Kurq_kEMjWYs5cq_H-5">
          <mxGeometry relative="1" as="geometry">
            <mxPoint x="590" y="690" as="sourcePoint" />
          </mxGeometry>
        </mxCell>
        <mxCell id="fo_Kurq_kEMjWYs5cq_H-29" style="edgeStyle=orthogonalEdgeStyle;rounded=0;orthogonalLoop=1;jettySize=auto;html=1;entryX=0.005;entryY=0.63;entryDx=0;entryDy=0;entryPerimeter=0;curved=1;exitX=0.995;exitY=0.63;exitDx=0;exitDy=0;exitPerimeter=0;strokeWidth=3;" edge="1" parent="1" source="fo_Kurq_kEMjWYs5cq_H-18" target="fo_Kurq_kEMjWYs5cq_H-21">
          <mxGeometry relative="1" as="geometry" />
        </mxCell>
        <mxCell id="fo_Kurq_kEMjWYs5cq_H-32" value="" style="rounded=1;whiteSpace=wrap;html=1;dashed=1;dashPattern=8 8;" vertex="1" parent="1">
          <mxGeometry x="510" y="140" width="430" height="130" as="geometry" />
        </mxCell>
        <mxCell id="fo_Kurq_kEMjWYs5cq_H-34" value="" style="aspect=fixed;sketch=0;html=1;dashed=0;whitespace=wrap;verticalLabelPosition=bottom;verticalAlign=top;fillColor=#2875E2;strokeColor=#ffffff;points=[[0.005,0.63,0],[0.1,0.2,0],[0.9,0.2,0],[0.5,0,0],[0.995,0.63,0],[0.72,0.99,0],[0.5,1,0],[0.28,0.99,0]];shape=mxgraph.kubernetes.icon2;prIcon=api" vertex="1" parent="1">
          <mxGeometry x="900" y="450" width="92.71" height="89" as="geometry" />
        </mxCell>
        <mxCell id="fo_Kurq_kEMjWYs5cq_H-35" value="" style="aspect=fixed;sketch=0;html=1;dashed=0;whitespace=wrap;verticalLabelPosition=bottom;verticalAlign=top;fillColor=#2875E2;strokeColor=#ffffff;points=[[0.005,0.63,0],[0.1,0.2,0],[0.9,0.2,0],[0.5,0,0],[0.995,0.63,0],[0.72,0.99,0],[0.5,1,0],[0.28,0.99,0]];shape=mxgraph.kubernetes.icon2;prIcon=api" vertex="1" parent="1">
          <mxGeometry x="860" y="70" width="92.71" height="89" as="geometry" />
        </mxCell>
        <mxCell id="fo_Kurq_kEMjWYs5cq_H-38" style="edgeStyle=orthogonalEdgeStyle;rounded=0;orthogonalLoop=1;jettySize=auto;html=1;strokeWidth=3;exitX=1;exitY=0.5;exitDx=0;exitDy=0;" edge="1" parent="1" source="fo_Kurq_kEMjWYs5cq_H-32" target="fo_Kurq_kEMjWYs5cq_H-12">
          <mxGeometry relative="1" as="geometry">
            <mxPoint x="950" y="205" as="sourcePoint" />
          </mxGeometry>
        </mxCell>
        <mxCell id="fo_Kurq_kEMjWYs5cq_H-41" value="&lt;font style=&quot;font-size: 20px;&quot;&gt;Publish&lt;/font&gt;" style="edgeLabel;html=1;align=center;verticalAlign=middle;resizable=0;points=[];" vertex="1" connectable="0" parent="fo_Kurq_kEMjWYs5cq_H-38">
          <mxGeometry x="0.1011" y="2" relative="1" as="geometry">
            <mxPoint x="-16" y="-3" as="offset" />
          </mxGeometry>
        </mxCell>
        <mxCell id="fo_Kurq_kEMjWYs5cq_H-36" value="&lt;font style=&quot;font-size: 32px;&quot;&gt;Cloud APP&lt;/font&gt;" style="rounded=1;whiteSpace=wrap;html=1;strokeWidth=0;strokeColor=none;" vertex="1" parent="1">
          <mxGeometry x="540" y="175" width="370" height="60" as="geometry" />
        </mxCell>
        <mxCell id="fo_Kurq_kEMjWYs5cq_H-37" style="rounded=0;orthogonalLoop=1;jettySize=auto;html=1;entryX=0.486;entryY=0.985;entryDx=0;entryDy=0;entryPerimeter=0;exitX=0.5;exitY=0;exitDx=0;exitDy=0;strokeWidth=3;" edge="1" parent="1" source="fo_Kurq_kEMjWYs5cq_H-10" target="fo_Kurq_kEMjWYs5cq_H-32">
          <mxGeometry relative="1" as="geometry" />
        </mxCell>
        <mxCell id="fo_Kurq_kEMjWYs5cq_H-42" value="&lt;font style=&quot;font-size: 20px;&quot;&gt;HTTP Response&lt;/font&gt;" style="edgeLabel;html=1;align=center;verticalAlign=middle;resizable=0;points=[];" vertex="1" connectable="0" parent="fo_Kurq_kEMjWYs5cq_H-37">
          <mxGeometry x="0.278" relative="1" as="geometry">
            <mxPoint x="28" y="10" as="offset" />
          </mxGeometry>
        </mxCell>
        <mxCell id="fo_Kurq_kEMjWYs5cq_H-43" value="&lt;font style=&quot;font-size: 20px;&quot;&gt;Microk8s&lt;/font&gt;" style="rounded=1;whiteSpace=wrap;html=1;strokeWidth=0;strokeColor=#FFFFFF;" vertex="1" parent="1">
          <mxGeometry x="690.01" y="850" width="120" height="20" as="geometry" />
        </mxCell>
        <mxCell id="fo_Kurq_kEMjWYs5cq_H-46" style="edgeStyle=orthogonalEdgeStyle;rounded=0;orthogonalLoop=1;jettySize=auto;html=1;entryX=0.005;entryY=0.63;entryDx=0;entryDy=0;entryPerimeter=0;strokeWidth=3;" edge="1" parent="1" target="fo_Kurq_kEMjWYs5cq_H-18">
          <mxGeometry relative="1" as="geometry">
            <mxPoint x="318" y="687" as="sourcePoint" />
            <Array as="points">
              <mxPoint x="480" y="687" />
              <mxPoint x="480" y="687" />
            </Array>
          </mxGeometry>
        </mxCell>
        <mxCell id="fo_Kurq_kEMjWYs5cq_H-53" style="rounded=0;orthogonalLoop=1;jettySize=auto;html=1;entryX=0;entryY=0.5;entryDx=0;entryDy=0;entryPerimeter=0;strokeWidth=3;" edge="1" parent="1" source="fo_Kurq_kEMjWYs5cq_H-47" target="fo_Kurq_kEMjWYs5cq_H-11">
          <mxGeometry relative="1" as="geometry">
            <Array as="points">
              <mxPoint x="1000" y="890" />
            </Array>
          </mxGeometry>
        </mxCell>
        <mxCell id="fo_Kurq_kEMjWYs5cq_H-47" value="" style="image;aspect=fixed;html=1;points=[];align=center;fontSize=12;image=img/lib/azure2/management_governance/Customer_Lockbox_for_MS_Azure.svg;" vertex="1" parent="1">
          <mxGeometry x="255.57" y="850" width="81.93" height="80" as="geometry" />
        </mxCell>
        <mxCell id="fo_Kurq_kEMjWYs5cq_H-51" value="" style="points=[[0.03,0.03,0],[0.5,0,0],[0.97,0.03,0],[1,0.4,0],[0.97,0.745,0],[0.5,1,0],[0.03,0.745,0],[0,0.4,0]];verticalLabelPosition=bottom;sketch=0;html=1;verticalAlign=top;aspect=fixed;align=center;pointerEvents=1;shape=mxgraph.cisco19.workstation;fillColor=#005073;strokeColor=none;" vertex="1" parent="1">
          <mxGeometry x="255.57" y="650" width="87.5" height="70" as="geometry" />
        </mxCell>
        <mxCell id="fo_Kurq_kEMjWYs5cq_H-55" value="&lt;font style=&quot;font-size: 20px;&quot;&gt;Endpoint&lt;/font&gt;" style="rounded=1;whiteSpace=wrap;html=1;strokeColor=#FFFFFF;" vertex="1" parent="1">
          <mxGeometry x="247.77999999999997" y="730" width="105.68" height="20" as="geometry" />
        </mxCell>
        <mxCell id="fo_Kurq_kEMjWYs5cq_H-56" value="&lt;font style=&quot;font-size: 20px;&quot;&gt;customer&lt;/font&gt;" style="rounded=1;whiteSpace=wrap;html=1;strokeColor=#FFFFFF;" vertex="1" parent="1">
          <mxGeometry x="240" y="930" width="113.46" height="30" as="geometry" />
        </mxCell>
        <mxCell id="fo_Kurq_kEMjWYs5cq_H-58" value="&lt;font style=&quot;font-size: 20px;&quot;&gt;AWS IoT Core&lt;/font&gt;" style="edgeLabel;html=1;align=center;verticalAlign=middle;resizable=0;points=[];" vertex="1" connectable="0" parent="1">
          <mxGeometry x="1089.9999999999995" y="280.00352941176465" as="geometry">
            <mxPoint x="85" y="-154" as="offset" />
          </mxGeometry>
        </mxCell>
      </root>
    </mxGraphModel>
  </diagram>
</mxfile>
